<svg width="1024" height="1024" viewBox="0 0 1024 1024" fill="none" xmlns="http://www.w3.org/2000/svg">
    <path
        d="M870.113 740.337C853.687 740.337 839.567 735.294 827.751 725.208C815.936 715.41 810.029 701.001 810.029 681.981C810.029 658.639 821.844 635.873 845.474 613.683C828.76 612.242 815.36 606.767 805.274 597.257C795.187 587.747 790.144 574.347 790.144 557.056C790.144 548.987 791.153 536.884 793.17 520.746C795.187 504.608 797.349 487.173 799.654 468.442C801.96 449.71 804.409 429.826 807.003 408.789C815.936 405.619 824.149 404.034 831.642 404.034C839.134 404.034 844.754 404.323 848.5 404.899C852.246 405.475 855.849 407.637 859.307 411.383C862.765 415.129 864.494 420.46 864.494 427.377L850.229 537.604C849.653 542.215 849.365 545.385 849.365 547.114C849.365 564.117 857.145 572.618 872.707 572.618C886.828 572.618 898.355 565.99 907.288 552.734C908.153 546.106 910.314 527.086 913.772 495.675C917.23 463.975 920.112 439.336 922.418 421.757C925.011 416.282 930.342 411.959 938.411 408.789C946.768 405.619 953.541 404.034 958.728 404.034C967.949 404.034 976.307 405.187 983.799 407.493L963.483 566.999C997.199 573.05 1017.37 596.249 1024 636.593C1022.85 642.069 1017.37 650.714 1007.57 662.529C1001.81 626.507 985.961 604.606 960.025 596.825L953.108 650.858C949.938 676.794 941.725 698.119 928.469 714.833C915.213 731.836 895.761 740.337 870.113 740.337ZM843.745 673.768C843.745 683.278 846.051 690.338 850.661 694.949C855.272 699.56 861.324 701.865 868.817 701.865C876.597 701.865 882.505 698.695 886.539 692.356C890.574 686.016 893.744 673.336 896.049 654.316L901.669 606.767C863.918 626.363 844.61 648.697 843.745 673.768Z"
        fill="white" />
    <path
        d="M744.865 311.097C744.865 312.826 740.974 343.805 733.193 404.034H796.736V437.319H728.871L727.574 448.125C761.291 476.367 778.149 507.202 778.149 540.63C778.149 566.854 771.377 585.73 757.832 597.257C744.576 608.784 728.582 614.548 709.851 614.548C691.119 614.548 677.431 609.649 668.786 599.851C660.14 589.764 655.818 577.661 655.818 563.54C655.818 560.37 656.106 556.912 656.682 553.166L670.083 438.183L668.354 437.319H633.34C633.052 434.437 632.908 429.826 632.908 423.486C632.908 416.858 634.205 410.374 636.798 404.034H673.973L687.805 286.458C693.857 284.153 701.926 283 712.012 283C733.914 283 744.865 292.366 744.865 311.097ZM749.187 540.198C749.187 520.314 740.542 500.718 723.251 481.41C718.064 524.348 715.47 549.132 715.47 555.76C715.47 568.728 719.649 575.212 728.006 575.212C734.058 575.212 739.101 572.474 743.135 566.999C747.17 561.235 749.187 552.301 749.187 540.198Z"
        fill="white" />
    <path
        d="M596.273 311.097C596.273 312.826 592.383 343.805 584.602 404.034H648.145V437.319H580.279L578.983 448.125C612.699 476.367 629.558 507.202 629.558 540.63C629.558 566.854 622.786 585.73 609.241 597.257C595.985 608.784 579.991 614.548 561.26 614.548C542.528 614.548 528.84 609.649 520.194 599.851C511.549 589.764 507.226 577.661 507.226 563.54C507.226 560.37 507.515 556.912 508.091 553.166L521.491 438.183L519.762 437.319H484.749C484.461 434.437 484.316 429.826 484.316 423.486C484.316 416.858 485.613 410.374 488.207 404.034H525.382L539.214 286.458C545.266 284.153 553.335 283 563.421 283C585.322 283 596.273 292.366 596.273 311.097ZM600.596 540.198C600.596 520.314 591.951 500.718 574.66 481.41C569.473 524.348 566.879 549.132 566.879 555.76C566.879 568.728 571.058 575.212 579.415 575.212C585.467 575.212 590.51 572.474 594.544 566.999C598.579 561.235 600.596 552.301 600.596 540.198Z"
        fill="white" />
    <path
        d="M387.259 404.034C413.772 404.034 435.817 412.536 453.396 429.538C471.263 446.54 480.196 467.289 480.196 491.784C480.196 528.959 469.246 558.785 447.344 581.263C425.731 603.453 399.507 614.548 368.672 614.548C337.837 614.548 313.342 605.758 295.187 588.18C277.32 570.601 268.386 548.843 268.386 522.907C268.386 486.597 279.481 457.779 301.671 436.454C324.148 414.841 352.678 404.034 387.259 404.034ZM378.614 439.048C365.07 439.048 353.687 446.829 344.465 462.39C335.243 477.952 330.2 497.548 329.336 521.178C329.336 537.893 332.65 551.725 339.278 562.676C346.194 573.627 356.568 579.102 370.401 579.102C384.233 579.102 395.76 571.465 404.982 556.192C414.492 540.918 419.247 523.484 419.247 503.888C419.247 484.292 415.933 468.73 409.305 457.203C402.677 445.1 392.446 439.048 378.614 439.048Z"
        fill="white" />
    <path
        d="M130.544 730.827C114.406 730.827 100.574 725.784 89.0467 715.698C77.8078 705.9 72.1884 690.771 72.1884 670.31C72.1884 649.849 81.9864 630.686 101.582 612.819C66.713 607.92 41.0652 594.519 24.6391 572.618C8.21305 550.428 0 521.899 0 487.029C0 451.872 6.3399 419.02 19.0197 388.473C31.9877 357.638 51.1514 332.422 76.511 312.826C101.871 292.942 129.247 283 158.641 283C188.324 283 211.522 290.204 228.236 304.613C245.239 318.734 253.74 338.186 253.74 362.969C253.74 387.752 246.391 407.781 231.694 423.054C216.997 438.039 199.563 445.532 179.39 445.532C159.506 445.532 144.089 441.209 133.138 432.564C122.187 423.63 116.712 414.265 116.712 404.467C116.712 394.38 120.602 386.6 128.383 381.124C136.452 375.361 148.123 372.479 163.396 372.479C159.65 376.225 157.777 381.268 157.777 387.608C157.777 393.66 159.65 398.991 163.396 403.602C167.143 408.213 172.762 410.518 180.255 410.518C188.036 410.518 195.24 406.484 201.868 398.415C208.784 390.346 212.242 379.395 212.242 365.563C212.242 351.442 208.64 340.491 201.436 332.711C194.231 324.93 183.281 321.039 168.584 321.039C148.988 321.039 131.121 328.964 114.983 344.814C99.1329 360.664 87.0295 380.836 78.6723 405.331C70.3152 429.826 66.1366 455.618 66.1366 482.707C66.1366 506.049 71.1797 526.654 81.2659 544.521C86.4531 553.742 94.0898 561.091 104.176 566.566C114.55 572.042 124.637 574.779 134.435 574.779C144.521 574.779 152.59 574.347 158.641 573.482L169.448 479.249H229.965L220.455 549.708C251.579 533.282 272.039 515.415 281.837 496.107L298.696 519.882C279.964 548.699 252.299 570.601 215.701 585.586L210.081 632.271C207.776 653.308 203.597 670.886 197.545 685.007C191.494 699.128 184.289 709.214 175.932 715.266C167.863 721.605 160.371 725.784 153.454 727.801C146.538 729.819 138.901 730.827 130.544 730.827ZM110.66 669.013C110.66 674.2 112.245 678.667 115.415 682.413C118.585 686.16 122.187 688.033 126.222 688.033C130.544 688.033 133.858 687.312 136.164 685.872C138.469 684.431 140.919 680.684 143.512 674.633C146.106 668.581 148.123 660.08 149.564 649.129L153.887 613.683C125.069 631.55 110.66 649.993 110.66 669.013Z"
        fill="white" />
</svg>